<?xml version="1.0" encoding="UTF-8" standalone="no"?>
<svg
   width="24"
   height="24"
   viewBox="0 0 24 24"
   version="1.1"
   id="svg1"
   sodipodi:docname="calendar.svg"
   inkscape:export-filename="calendar.png"
   inkscape:export-xdpi="96"
   inkscape:export-ydpi="96"
   inkscape:version="1.4.2 (ebf0e940d0, 2025-05-08)"
   xmlns:inkscape="http://www.inkscape.org/namespaces/inkscape"
   xmlns:sodipodi="http://sodipodi.sourceforge.net/DTD/sodipodi-0.dtd"
   xmlns="http://www.w3.org/2000/svg"
   xmlns:svg="http://www.w3.org/2000/svg">
  <defs
     id="defs1" />
  <sodipodi:namedview
     id="namedview1"
     pagecolor="#ffffff"
     bordercolor="#000000"
     borderopacity="0.25"
     inkscape:showpageshadow="2"
     inkscape:pageopacity="0.0"
     inkscape:pagecheckerboard="0"
     inkscape:deskcolor="#d1d1d1"
     inkscape:zoom="11.092738"
     inkscape:cx="6.9865531"
     inkscape:cy="27.270094"
     inkscape:window-width="1920"
     inkscape:window-height="1008"
     inkscape:window-x="0"
     inkscape:window-y="0"
     inkscape:window-maximized="1"
     inkscape:current-layer="svg1" />
  <path
     d="M24 2v22h-24v-22h3v1c0 1.103.897 2 2 2s2-.897 2-2v-1h10v1c0 1.103.897 2 2 2s2-.897 2-2v-1h3zm-2 6h-20v14h20v-14zm-2-7c0-.552-.447-1-1-1s-1 .448-1 1v2c0 .552.447 1 1 1s1-.448 1-1v-2zm-14 2c0 .552-.447 1-1 1s-1-.448-1-1v-2c0-.552.447-1 1-1s1 .448 1 1v2zm6.687 13.482c0-.802-.418-1.429-1.109-1.695.528-.264.836-.807.836-1.503 0-1.346-1.312-2.149-2.581-2.149-1.477 0-2.591.925-2.659 2.763h1.645c-.014-.761.271-1.315 1.025-1.315.449 0 .933.272.933.869 0 .754-.816.862-1.567.797v1.28c1.067 0 1.704.067 1.704.985 0 .724-.548 1.048-1.091 1.048-.822 0-1.159-.614-1.188-1.452h-1.634c-.032 1.892 1.114 2.89 2.842 2.89 1.543 0 2.844-.943 2.844-2.518zm4.313 2.518v-7.718h-1.392c-.173 1.154-.995 1.491-2.171 1.459v1.346h1.852v4.913h1.711z"
     id="path1"
     style="fill:#000000;fill-opacity:0.65098041" />
</svg>
