<svg width="261" height="52" viewBox="0 0 261 52" fill="none" xmlns="http://www.w3.org/2000/svg">
<g filter="url(#filter0_d_402_191)">
<path d="M23.6977 0L48 28.6301V44H36.6589V34.1553L19.0078 13.3607H15.3411V44H4V0H23.6977ZM36.6589 15.2694V0H48V15.2694H36.6589Z" fill="#135FC2"/>
</g>
<path d="M71.744 34.32C71.104 34.32 70.592 34.1493 70.208 33.808C69.824 33.4667 69.632 32.9973 69.632 32.4V20.336C69.632 17.4987 70.5173 15.28 72.288 13.68C74.0587 12.08 76.512 11.28 79.648 11.28C82.784 11.28 85.2373 12.08 87.008 13.68C88.7787 15.28 89.664 17.4987 89.664 20.336V32.4C89.664 32.9973 89.472 33.4667 89.088 33.808C88.704 34.1493 88.192 34.32 87.552 34.32C86.912 34.32 86.3893 34.1493 85.984 33.808C85.6 33.4453 85.408 32.976 85.408 32.4V20.24C85.408 18.4267 84.9173 17.04 83.936 16.08C82.9547 15.12 81.5253 14.64 79.648 14.64C77.7707 14.64 76.3413 15.12 75.36 16.08C74.3787 17.04 73.888 18.4267 73.888 20.24V32.4C73.888 32.976 73.6853 33.4453 73.28 33.808C72.896 34.1493 72.384 34.32 71.744 34.32ZM101.489 34.32C99.6546 34.32 98.0546 33.9893 96.6893 33.328C95.3239 32.6667 94.2679 31.7387 93.5213 30.544C92.7959 29.328 92.4333 27.9093 92.4333 26.288C92.4333 23.664 93.1906 21.6267 94.7053 20.176C96.2413 18.7253 98.3959 18 101.169 18C102.876 18 104.38 18.2667 105.681 18.8C107.004 19.3333 108.028 20.08 108.753 21.04C109.5 21.9787 109.873 23.056 109.873 24.272C109.873 25.296 109.543 26.0853 108.881 26.64C108.241 27.1947 107.324 27.472 106.129 27.472H96.4973C96.4973 28.6667 96.9133 29.5733 97.7453 30.192C98.5986 30.7893 99.8466 31.088 101.489 31.088C103.217 31.088 104.689 30.704 105.905 29.936C106.588 29.5093 107.121 29.296 107.505 29.296C107.868 29.296 108.22 29.4667 108.561 29.808C108.924 30.1707 109.105 30.5653 109.105 30.992C109.105 31.504 108.892 31.9093 108.465 32.208C107.569 32.8907 106.524 33.4133 105.329 33.776C104.135 34.1387 102.855 34.32 101.489 34.32ZM104.849 24.528C105.212 24.528 105.468 24.464 105.617 24.336C105.767 24.1867 105.841 23.952 105.841 23.632C105.841 22.8853 105.415 22.2987 104.561 21.872C103.729 21.4453 102.599 21.232 101.169 21.232C99.7399 21.232 98.6093 21.5307 97.7773 22.128C96.9666 22.7253 96.5613 23.5253 96.5613 24.528H104.849ZM126.891 31.344C127.232 31.6853 127.403 32.0907 127.403 32.56C127.403 33.072 127.189 33.5093 126.763 33.872C126.421 34.1493 126.037 34.288 125.611 34.288C125.035 34.288 124.501 34.0427 124.011 33.552L119.403 28.624L114.763 33.552C114.272 34.0427 113.739 34.288 113.163 34.288C112.736 34.288 112.352 34.1493 112.011 33.872C111.584 33.5093 111.371 33.072 111.371 32.56C111.371 32.0907 111.541 31.6853 111.883 31.344L116.907 26L112.299 21.104C111.893 20.656 111.691 20.1973 111.691 19.728C111.691 19.216 111.904 18.7787 112.331 18.416C112.629 18.1387 113.003 18 113.451 18C114.027 18 114.592 18.2773 115.147 18.832L119.403 23.344L123.627 18.832C124.181 18.2773 124.747 18 125.323 18C125.771 18 126.144 18.1387 126.443 18.416C126.869 18.7787 127.083 19.216 127.083 19.728C127.083 20.1973 126.88 20.656 126.475 21.104L121.867 26L126.891 31.344ZM143.091 29.872C143.432 30.1493 143.603 30.4907 143.603 30.896C143.603 31.3013 143.453 31.7173 143.155 32.144C142.685 32.8267 142.024 33.36 141.171 33.744C140.317 34.128 139.357 34.32 138.291 34.32C136.584 34.32 135.24 33.8613 134.259 32.944C133.299 32.0053 132.819 30.7253 132.819 29.104V21.616H131.507C130.867 21.616 130.355 21.4667 129.971 21.168C129.587 20.8693 129.395 20.4747 129.395 19.984C129.395 19.472 129.576 19.0667 129.939 18.768C130.323 18.4693 130.845 18.32 131.507 18.32H132.819V13.488C132.819 12.8907 133.011 12.4213 133.395 12.08C133.779 11.7387 134.291 11.568 134.931 11.568C135.592 11.568 136.104 11.7387 136.467 12.08C136.829 12.4213 137.01 12.8907 137.01 13.488V18.32H140.083C140.744 18.32 141.256 18.4693 141.619 18.768C142.003 19.0667 142.195 19.472 142.195 19.984C142.195 20.4747 142.003 20.8693 141.619 21.168C141.256 21.4667 140.744 21.616 140.083 21.616H137.01V29.456C137.01 29.9253 137.149 30.2987 137.427 30.576C137.725 30.8533 138.12 30.992 138.611 30.992C138.995 30.992 139.325 30.9387 139.603 30.832C139.901 30.704 140.2 30.5013 140.499 30.224C141.053 29.6907 141.565 29.424 142.035 29.424C142.376 29.424 142.728 29.5733 143.091 29.872ZM157.654 34.32C155.243 34.32 153.152 33.8613 151.382 32.944C149.611 32.0267 148.256 30.704 147.318 28.976C146.379 27.248 145.91 25.2 145.91 22.832C145.91 20.464 146.379 18.416 147.318 16.688C148.256 14.9387 149.6 13.6053 151.35 12.688C153.12 11.7493 155.2 11.28 157.59 11.28C159.574 11.28 161.408 11.6213 163.094 12.304C164.779 12.9867 166.027 13.8933 166.838 15.024C167.094 15.3653 167.222 15.7173 167.222 16.08C167.222 16.6133 166.934 17.0933 166.358 17.52C166.102 17.712 165.782 17.808 165.398 17.808C165.078 17.808 164.758 17.744 164.438 17.616C164.118 17.4667 163.851 17.264 163.638 17.008C162.912 16.176 162.07 15.5787 161.11 15.216C160.15 14.832 158.976 14.64 157.59 14.64C155.264 14.64 153.451 15.3653 152.15 16.816C150.848 18.2453 150.198 20.2507 150.198 22.832C150.198 25.392 150.848 27.3867 152.15 28.816C153.472 30.2453 155.307 30.96 157.654 30.96C160.342 30.96 162.486 30.1707 164.086 28.592C164.747 27.9733 165.355 27.664 165.91 27.664C166.294 27.664 166.646 27.792 166.966 28.048C167.456 28.4747 167.702 28.944 167.702 29.456C167.702 29.84 167.563 30.2133 167.286 30.576C166.368 31.7493 165.056 32.6667 163.35 33.328C161.664 33.9893 159.766 34.32 157.654 34.32ZM178.927 34.32C177.092 34.32 175.492 33.9893 174.127 33.328C172.761 32.6667 171.705 31.7387 170.959 30.544C170.233 29.328 169.871 27.9093 169.871 26.288C169.871 23.664 170.628 21.6267 172.143 20.176C173.679 18.7253 175.833 18 178.607 18C180.313 18 181.817 18.2667 183.119 18.8C184.441 19.3333 185.465 20.08 186.191 21.04C186.937 21.9787 187.311 23.056 187.311 24.272C187.311 25.296 186.98 26.0853 186.319 26.64C185.679 27.1947 184.761 27.472 183.567 27.472H173.935C173.935 28.6667 174.351 29.5733 175.183 30.192C176.036 30.7893 177.284 31.088 178.927 31.088C180.655 31.088 182.127 30.704 183.343 29.936C184.025 29.5093 184.559 29.296 184.943 29.296C185.305 29.296 185.657 29.4667 185.999 29.808C186.361 30.1707 186.543 30.5653 186.543 30.992C186.543 31.504 186.329 31.9093 185.903 32.208C185.007 32.8907 183.961 33.4133 182.767 33.776C181.572 34.1387 180.292 34.32 178.927 34.32ZM182.287 24.528C182.649 24.528 182.905 24.464 183.055 24.336C183.204 24.1867 183.279 23.952 183.279 23.632C183.279 22.8853 182.852 22.2987 181.999 21.872C181.167 21.4453 180.036 21.232 178.607 21.232C177.177 21.232 176.047 21.5307 175.215 22.128C174.404 22.7253 173.999 23.5253 173.999 24.528H182.287ZM192.021 34.32C191.359 34.32 190.847 34.1493 190.485 33.808C190.122 33.4667 189.941 32.9973 189.941 32.4V19.92C189.941 19.3013 190.111 18.832 190.453 18.512C190.815 18.1707 191.317 18 191.957 18C192.597 18 193.098 18.1707 193.461 18.512C193.823 18.8533 194.005 19.3227 194.005 19.92V20.976C194.666 20.1227 195.434 19.472 196.309 19.024C197.205 18.5547 198.165 18.32 199.189 18.32H199.893C200.575 18.32 201.098 18.4693 201.461 18.768C201.845 19.0453 202.037 19.4507 202.037 19.984C202.037 20.5173 201.845 20.9333 201.461 21.232C201.098 21.5093 200.575 21.648 199.893 21.648H198.805C197.375 21.648 196.234 22.1067 195.381 23.024C194.549 23.92 194.133 25.1573 194.133 26.736V32.4C194.133 32.9973 193.941 33.4667 193.557 33.808C193.173 34.1493 192.661 34.32 192.021 34.32ZM216.278 29.872C216.619 30.1493 216.79 30.4907 216.79 30.896C216.79 31.3013 216.641 31.7173 216.342 32.144C215.873 32.8267 215.211 33.36 214.358 33.744C213.505 34.128 212.545 34.32 211.478 34.32C209.771 34.32 208.427 33.8613 207.446 32.944C206.486 32.0053 206.006 30.7253 206.006 29.104V21.616H204.694C204.054 21.616 203.542 21.4667 203.158 21.168C202.774 20.8693 202.582 20.4747 202.582 19.984C202.582 19.472 202.763 19.0667 203.126 18.768C203.51 18.4693 204.033 18.32 204.694 18.32H206.006V13.488C206.006 12.8907 206.198 12.4213 206.582 12.08C206.966 11.7387 207.478 11.568 208.118 11.568C208.779 11.568 209.291 11.7387 209.654 12.08C210.017 12.4213 210.198 12.8907 210.198 13.488V18.32H213.27C213.931 18.32 214.443 18.4693 214.806 18.768C215.19 19.0667 215.382 19.472 215.382 19.984C215.382 20.4747 215.19 20.8693 214.806 21.168C214.443 21.4667 213.931 21.616 213.27 21.616H210.198V29.456C210.198 29.9253 210.337 30.2987 210.614 30.576C210.913 30.8533 211.307 30.992 211.798 30.992C212.182 30.992 212.513 30.9387 212.79 30.832C213.089 30.704 213.387 30.5013 213.686 30.224C214.241 29.6907 214.753 29.424 215.222 29.424C215.563 29.424 215.915 29.5733 216.278 29.872ZM221.721 16.016C220.932 16.016 220.292 15.8027 219.801 15.376C219.332 14.928 219.097 14.352 219.097 13.648C219.097 12.944 219.332 12.3787 219.801 11.952C220.292 11.504 220.932 11.28 221.721 11.28C222.51 11.28 223.15 11.504 223.641 11.952C224.153 12.3787 224.409 12.944 224.409 13.648C224.409 14.352 224.153 14.928 223.641 15.376C223.15 15.8027 222.51 16.016 221.721 16.016ZM221.753 34.32C221.092 34.32 220.58 34.1493 220.217 33.808C219.854 33.4667 219.673 32.9973 219.673 32.4V19.92C219.673 19.3227 219.854 18.8533 220.217 18.512C220.58 18.1707 221.092 18 221.753 18C222.393 18 222.905 18.1707 223.289 18.512C223.673 18.8533 223.865 19.3227 223.865 19.92V32.4C223.865 32.9973 223.673 33.4667 223.289 33.808C222.905 34.1493 222.393 34.32 221.753 34.32ZM239.827 11.536C240.36 11.8773 240.627 12.3147 240.627 12.848C240.627 13.1253 240.542 13.4133 240.371 13.712C240.03 14.288 239.603 14.576 239.091 14.576C238.856 14.576 238.558 14.512 238.195 14.384C237.32 14.0213 236.488 13.84 235.699 13.84C235.102 13.84 234.622 14.032 234.259 14.416C233.896 14.7787 233.715 15.2693 233.715 15.888V18.32H237.395C238.056 18.32 238.568 18.4693 238.931 18.768C239.315 19.0667 239.507 19.472 239.507 19.984C239.507 20.4747 239.315 20.8693 238.931 21.168C238.568 21.4667 238.056 21.616 237.395 21.616H233.715V32.4C233.715 32.9973 233.534 33.4667 233.171 33.808C232.808 34.1493 232.296 34.32 231.635 34.32C230.995 34.32 230.483 34.1493 230.099 33.808C229.715 33.4667 229.523 32.9973 229.523 32.4V21.616H228.819C228.179 21.616 227.667 21.4667 227.283 21.168C226.899 20.8693 226.707 20.4747 226.707 19.984C226.707 19.472 226.888 19.0667 227.251 18.768C227.635 18.4693 228.158 18.32 228.819 18.32H229.523V16.016C229.523 14.3733 230.046 13.0507 231.091 12.048C232.158 11.024 233.534 10.512 235.219 10.512C236.307 10.512 237.203 10.5973 237.907 10.768C238.611 10.9173 239.251 11.1733 239.827 11.536ZM248.783 42C247.226 42 245.807 41.7547 244.527 41.264C243.268 40.7947 242.298 40.1333 241.615 39.28C241.338 38.9173 241.199 38.544 241.199 38.16C241.199 37.648 241.444 37.1787 241.935 36.752C242.255 36.496 242.607 36.368 242.991 36.368C243.567 36.368 244.122 36.656 244.655 37.232C245.572 38.2133 246.916 38.704 248.687 38.704C250.202 38.704 251.343 38.2987 252.111 37.488C252.9 36.6987 253.295 35.536 253.295 34V32.656C252.783 33.1467 252.122 33.552 251.311 33.872C250.5 34.1707 249.732 34.32 249.007 34.32C246.34 34.32 244.26 33.616 242.767 32.208C241.274 30.7787 240.527 28.7947 240.527 26.256V19.792C240.527 19.28 240.73 18.8533 241.135 18.512C241.54 18.1707 242.042 18 242.639 18C243.215 18 243.706 18.1813 244.111 18.544C244.516 18.8853 244.719 19.3013 244.719 19.792V26.256C244.719 27.792 245.092 28.9867 245.839 29.84C246.607 30.6933 247.663 31.12 249.007 31.12C250.308 31.12 251.322 30.6933 252.047 29.84C252.772 28.9867 253.135 27.792 253.135 26.256V20.144C253.135 19.4613 253.316 18.9387 253.679 18.576C254.063 18.192 254.586 18 255.247 18C255.908 18 256.42 18.192 256.783 18.576C257.146 18.9387 257.327 19.4613 257.327 20.144V33.456C257.327 36.144 256.57 38.2347 255.055 39.728C253.562 41.2427 251.471 42 248.783 42Z" fill="#135FC2"/>
<defs>
<filter id="filter0_d_402_191" x="0" y="0" width="52" height="52" filterUnits="userSpaceOnUse" color-interpolation-filters="sRGB">
<feFlood flood-opacity="0" result="BackgroundImageFix"/>
<feColorMatrix in="SourceAlpha" type="matrix" values="0 0 0 0 0 0 0 0 0 0 0 0 0 0 0 0 0 0 127 0" result="hardAlpha"/>
<feOffset dy="4"/>
<feGaussianBlur stdDeviation="2"/>
<feComposite in2="hardAlpha" operator="out"/>
<feColorMatrix type="matrix" values="0 0 0 0 0.0745098 0 0 0 0 0.372549 0 0 0 0 0.760784 0 0 0 1 0"/>
<feBlend mode="normal" in2="BackgroundImageFix" result="effect1_dropShadow_402_191"/>
<feBlend mode="normal" in="SourceGraphic" in2="effect1_dropShadow_402_191" result="shape"/>
</filter>
</defs>
</svg>
