<svg width="40" height="40" viewBox="0 0 40 40" fill="none" xmlns="http://www.w3.org/2000/svg">
<g clip-path="url(#clip0_362_431)">
<path d="M20 3.33333C29.19 3.33333 36.6667 10.81 36.6667 20C36.6667 29.19 29.19 36.6667 20 36.6667C10.81 36.6667 3.33333 29.19 3.33333 20C3.33333 10.81 10.81 3.33333 20 3.33333ZM20 0C8.955 0 0 8.955 0 20C0 31.045 8.955 40 20 40C31.045 40 40 31.045 40 20C40 8.955 31.045 0 20 0ZM21.6667 20V10H18.3333V23.3333H30V20H21.6667Z" fill="#8C8B8B"/>
</g>
<defs>
<clipPath id="clip0_362_431">
<rect width="40" height="40" fill="white"/>
</clipPath>
</defs>
</svg>
